<svg xmlns="http://www.w3.org/2000/svg" viewBox="0 0 2400 1350" width="2400" height="1350">
      <rect width="2400" height="1350" fill="#f5f1e8"/>
      <g><line x1="120" y1="0" x2="120" y2="1350" stroke="#1a2e1f" stroke-opacity=".055"/><line x1="280" y1="0" x2="280" y2="1350" stroke="#1a2e1f" stroke-opacity=".055"/><line x1="440" y1="0" x2="440" y2="1350" stroke="#1a2e1f" stroke-opacity=".055"/><line x1="600" y1="0" x2="600" y2="1350" stroke="#1a2e1f" stroke-opacity=".055"/><line x1="760" y1="0" x2="760" y2="1350" stroke="#1a2e1f" stroke-opacity=".055"/><line x1="920" y1="0" x2="920" y2="1350" stroke="#1a2e1f" stroke-opacity=".055"/><line x1="1080" y1="0" x2="1080" y2="1350" stroke="#1a2e1f" stroke-opacity=".055"/><line x1="1240" y1="0" x2="1240" y2="1350" stroke="#1a2e1f" stroke-opacity=".055"/><line x1="1400" y1="0" x2="1400" y2="1350" stroke="#1a2e1f" stroke-opacity=".055"/><line x1="1560" y1="0" x2="1560" y2="1350" stroke="#1a2e1f" stroke-opacity=".055"/><line x1="1720" y1="0" x2="1720" y2="1350" stroke="#1a2e1f" stroke-opacity=".055"/><line x1="1880" y1="0" x2="1880" y2="1350" stroke="#1a2e1f" stroke-opacity=".055"/><line x1="2040" y1="0" x2="2040" y2="1350" stroke="#1a2e1f" stroke-opacity=".055"/><line x1="2200" y1="0" x2="2200" y2="1350" stroke="#1a2e1f" stroke-opacity=".055"/><line x1="2360" y1="0" x2="2360" y2="1350" stroke="#1a2e1f" stroke-opacity=".055"/><line x1="0" y1="90" x2="2400" y2="90" stroke="#1a2e1f" stroke-opacity=".055"/><line x1="0" y1="225" x2="2400" y2="225" stroke="#1a2e1f" stroke-opacity=".055"/><line x1="0" y1="360" x2="2400" y2="360" stroke="#1a2e1f" stroke-opacity=".055"/><line x1="0" y1="495" x2="2400" y2="495" stroke="#1a2e1f" stroke-opacity=".055"/><line x1="0" y1="630" x2="2400" y2="630" stroke="#1a2e1f" stroke-opacity=".055"/><line x1="0" y1="765" x2="2400" y2="765" stroke="#1a2e1f" stroke-opacity=".055"/><line x1="0" y1="900" x2="2400" y2="900" stroke="#1a2e1f" stroke-opacity=".055"/><line x1="0" y1="1035" x2="2400" y2="1035" stroke="#1a2e1f" stroke-opacity=".055"/><line x1="0" y1="1170" x2="2400" y2="1170" stroke="#1a2e1f" stroke-opacity=".055"/><line x1="0" y1="1305" x2="2400" y2="1305" stroke="#1a2e1f" stroke-opacity=".055"/></g>
      <g opacity=".82"><path d="M 1736.3 670.0 L 1737.3 676.9 L 1737.9 683.9 L 1738.1 691.0 L 1738.0 698.0 L 1737.5 705.0 L 1736.6 712.0 L 1735.4 718.9 L 1733.9 725.8 L 1732.0 732.6 L 1729.9 739.3 L 1727.5 745.9 L 1724.8 752.4 L 1721.9 758.7 L 1718.8 765.0 L 1715.5 771.2 L 1712.0 777.2 L 1708.4 783.2 L 1704.6 789.0 L 1700.7 794.7 L 1696.7 800.4 L 1692.5 805.9 L 1688.3 811.3 L 1683.9 816.6 L 1679.5 821.9 L 1674.9 827.0 L 1670.2 832.0 L 1665.3 836.9 L 1660.3 841.6 L 1655.2 846.2 L 1650.0 850.6 L 1644.6 854.9 L 1639.0 858.9 L 1633.3 862.8 L 1627.5 866.3 L 1621.5 869.7 L 1615.4 872.8 L 1609.1 875.5 L 1602.8 878.1 L 1596.3 880.3 L 1589.8 882.2 L 1583.2 883.8 L 1576.5 885.1 L 1569.8 886.2 L 1563.1 886.9 L 1556.4 887.4 L 1549.7 887.7 L 1543.1 887.8 L 1536.5 887.6 L 1529.9 887.3 L 1523.4 886.9 L 1517.0 886.4 L 1510.6 885.8 L 1504.3 885.1 L 1498.0 884.4 L 1491.7 883.7 L 1485.5 883.0 L 1479.3 882.4 L 1473.1 881.8 L 1466.8 881.2 L 1460.6 880.6 L 1454.3 880.1 L 1447.9 879.7 L 1441.5 879.2 L 1434.9 878.7 L 1428.4 878.2 L 1421.7 877.7 L 1414.9 877.0 L 1408.1 876.3 L 1401.2 875.3 L 1394.3 874.2 L 1387.3 872.9 L 1380.4 871.3 L 1373.4 869.5 L 1366.5 867.3 L 1359.7 864.8 L 1353.1 862.0 L 1346.5 858.8 L 1340.2 855.2 L 1334.1 851.3 L 1328.2 847.1 L 1322.6 842.4 L 1317.3 837.5 L 1312.3 832.2 L 1307.7 826.6 L 1303.4 820.7 L 1299.5 814.6 L 1296.0 808.3 L 1292.8 801.7 L 1290.0 795.1 L 1287.5 788.2 L 1285.4 781.3 L 1283.5 774.4 L 1282.0 767.4 L 1280.7 760.3 L 1279.7 753.3 L 1278.8 746.3 L 1278.2 739.3 L 1277.7 732.4 L 1277.3 725.5 L 1277.1 718.7 L 1277.0 712.0 L 1276.9 705.2 L 1276.9 698.6 L 1277.0 692.0 L 1277.1 685.4 L 1277.3 678.8 L 1277.5 672.3 L 1277.8 665.8 L 1278.2 659.3 L 1278.7 652.8 L 1279.3 646.4 L 1280.0 639.9 L 1280.8 633.4 L 1281.8 627.0 L 1282.9 620.6 L 1284.2 614.2 L 1285.7 607.9 L 1287.5 601.6 L 1289.4 595.3 L 1291.6 589.1 L 1293.9 583.0 L 1296.5 577.0 L 1299.4 571.1 L 1302.4 565.3 L 1305.6 559.6 L 1309.0 554.1 L 1312.7 548.6 L 1316.4 543.3 L 1320.3 538.0 L 1324.4 532.9 L 1328.6 527.9 L 1332.8 523.0 L 1337.2 518.2 L 1341.6 513.4 L 1346.2 508.7 L 1350.8 504.1 L 1355.4 499.4 L 1360.1 494.9 L 1364.9 490.3 L 1369.8 485.8 L 1374.7 481.3 L 1379.7 476.8 L 1384.8 472.3 L 1390.0 467.9 L 1395.4 463.5 L 1400.8 459.2 L 1406.4 455.0 L 1412.2 451.0 L 1418.1 447.0 L 1424.2 443.3 L 1430.4 439.7 L 1436.8 436.4 L 1443.4 433.4 L 1450.1 430.7 L 1456.9 428.3 L 1463.9 426.3 L 1470.9 424.6 L 1478.1 423.4 L 1485.3 422.7 L 1492.5 422.3 L 1499.8 422.5 L 1507.0 423.1 L 1514.2 424.1 L 1521.3 425.6 L 1528.3 427.5 L 1535.2 429.8 L 1541.9 432.4 L 1548.5 435.5 L 1554.9 438.8 L 1561.2 442.4 L 1567.2 446.3 L 1573.0 450.3 L 1578.7 454.6 L 1584.2 458.9 L 1589.5 463.4 L 1594.7 467.9 L 1599.7 472.4 L 1604.7 476.9 L 1609.5 481.4 L 1614.2 485.8 L 1618.9 490.2 L 1623.6 494.6 L 1628.2 498.8 L 1632.9 503.1 L 1637.5 507.2 L 1642.2 511.3 L 1646.9 515.4 L 1651.7 519.5 L 1656.4 523.6 L 1661.2 527.7 L 1666.1 531.9 L 1670.9 536.2 L 1675.7 540.5 L 1680.4 545.0 L 1685.1 549.6 L 1689.8 554.3 L 1694.3 559.2 L 1698.6 564.3 L 1702.9 569.6 L 1706.9 575.0 L 1710.7 580.7 L 1714.3 586.4 L 1717.6 592.4 L 1720.6 598.5 L 1723.4 604.8 L 1725.9 611.2 L 1728.1 617.7 L 1730.0 624.3 L 1731.5 631.0 L 1732.9 637.7 L 1733.9 644.5 L 1734.7 651.4 L 1735.2 658.3 L 1735.4 665.1 L 1735.5 672.0 L 1735.3 678.9 L 1734.9 685.8 L 1734.4 692.7 L 1733.7 699.5" fill="none" stroke="#9fb782" stroke-opacity="0.180" stroke-width="5.0"/><path d="M 1898.8 670.0 L 1900.1 679.7 L 1901.0 689.4 L 1901.3 699.2 L 1901.1 708.9 L 1900.4 718.7 L 1899.2 728.4 L 1897.5 738.1 L 1895.4 747.6 L 1892.8 757.0 L 1889.8 766.4 L 1886.5 775.5 L 1882.7 784.6 L 1878.7 793.5 L 1874.4 802.2 L 1869.8 810.8 L 1864.9 819.2 L 1859.9 827.4 L 1854.7 835.5 L 1849.2 843.5 L 1843.6 851.4 L 1837.9 859.1 L 1832.0 866.6 L 1825.9 874.0 L 1819.7 881.3 L 1813.3 888.4 L 1806.7 895.4 L 1800.0 902.2 L 1793.1 908.8 L 1786.0 915.2 L 1778.7 921.3 L 1771.1 927.2 L 1763.4 932.9 L 1755.5 938.2 L 1747.3 943.2 L 1739.0 947.8 L 1730.5 952.1 L 1721.8 956.0 L 1713.0 959.5 L 1704.0 962.5 L 1694.9 965.2 L 1685.7 967.5 L 1676.4 969.3 L 1667.1 970.7 L 1657.8 971.8 L 1648.5 972.5 L 1639.2 972.9 L 1630.0 973.0 L 1620.8 972.8 L 1611.6 972.4 L 1602.6 971.8 L 1593.6 971.0 L 1584.7 970.2 L 1575.9 969.3 L 1567.2 968.3 L 1558.5 967.3 L 1549.8 966.4 L 1541.2 965.5 L 1532.5 964.6 L 1523.9 963.8 L 1515.1 963.1 L 1506.4 962.4 L 1497.5 961.7 L 1488.6 961.1 L 1479.5 960.4 L 1470.3 959.7 L 1461.0 958.9 L 1451.6 958.0 L 1442.1 957.0 L 1432.5 955.7 L 1422.9 954.1 L 1413.2 952.3 L 1403.5 950.1 L 1393.9 947.5 L 1384.3 944.5 L 1374.9 941.0 L 1365.6 937.1 L 1356.5 932.7 L 1347.7 927.7 L 1339.1 922.3 L 1331.0 916.3 L 1323.2 909.9 L 1315.8 903.0 L 1308.9 895.6 L 1302.5 887.8 L 1296.5 879.7 L 1291.1 871.2 L 1286.2 862.4 L 1281.8 853.3 L 1277.8 844.0 L 1274.4 834.5 L 1271.4 824.9 L 1268.8 815.2 L 1266.7 805.5 L 1264.9 795.7 L 1263.4 785.9 L 1262.3 776.2 L 1261.4 766.5 L 1260.7 756.8 L 1260.2 747.3 L 1259.9 737.8 L 1259.7 728.4 L 1259.6 719.0 L 1259.6 709.8 L 1259.7 700.5 L 1259.9 691.4 L 1260.1 682.3 L 1260.5 673.2 L 1260.9 664.1 L 1261.4 655.1 L 1262.1 646.1 L 1262.9 637.1 L 1263.9 628.1 L 1265.0 619.1 L 1266.4 610.2 L 1268.0 601.3 L 1269.8 592.4 L 1271.9 583.5 L 1274.3 574.8 L 1277.0 566.1 L 1280.0 557.5 L 1283.3 549.0 L 1286.9 540.6 L 1290.9 532.4 L 1295.1 524.4 L 1299.6 516.4 L 1304.3 508.7 L 1309.3 501.1 L 1314.6 493.7 L 1320.0 486.4 L 1325.7 479.3 L 1331.5 472.3 L 1337.4 465.5 L 1343.5 458.8 L 1349.7 452.1 L 1356.0 445.6 L 1362.4 439.1 L 1368.8 432.7 L 1375.4 426.3 L 1382.0 420.0 L 1388.8 413.7 L 1395.7 407.4 L 1402.6 401.2 L 1409.7 395.0 L 1417.0 388.8 L 1424.4 382.8 L 1432.0 376.8 L 1439.8 370.9 L 1447.8 365.3 L 1456.0 359.8 L 1464.5 354.6 L 1473.2 349.6 L 1482.1 345.0 L 1491.2 340.8 L 1500.5 337.0 L 1510.0 333.7 L 1519.7 330.9 L 1529.6 328.6 L 1539.5 327.0 L 1549.5 325.9 L 1559.6 325.4 L 1569.7 325.6 L 1579.8 326.4 L 1589.8 327.9 L 1599.6 329.9 L 1609.4 332.5 L 1619.0 335.7 L 1628.3 339.5 L 1637.5 343.7 L 1646.4 348.3 L 1655.1 353.4 L 1663.5 358.7 L 1671.6 364.4 L 1679.5 370.3 L 1687.2 376.3 L 1694.6 382.5 L 1701.8 388.8 L 1708.8 395.0 L 1715.6 401.3 L 1722.3 407.6 L 1728.9 413.8 L 1735.4 419.9 L 1741.9 425.9 L 1748.4 431.9 L 1754.9 437.7 L 1761.3 443.5 L 1767.8 449.3 L 1774.4 454.9 L 1781.0 460.6 L 1787.7 466.3 L 1794.3 472.1 L 1801.0 477.9 L 1807.7 483.8 L 1814.4 489.8 L 1821.0 496.0 L 1827.6 502.5 L 1834.0 509.1 L 1840.3 515.9 L 1846.4 523.0 L 1852.2 530.3 L 1857.8 537.9 L 1863.1 545.7 L 1868.1 553.8 L 1872.7 562.0 L 1877.0 570.6 L 1880.8 579.3 L 1884.3 588.2 L 1887.3 597.2 L 1889.9 606.4 L 1892.2 615.7 L 1894.0 625.1 L 1895.4 634.6 L 1896.5 644.1 L 1897.2 653.7 L 1897.6 663.2 L 1897.6 672.8 L 1897.4 682.4 L 1896.9 692.0 L 1896.1 701.5 L 1895.1 711.1" fill="none" stroke="#9fb782" stroke-opacity="0.215" stroke-width="6.2"/><path d="M 2061.3 670.0 L 2063.0 682.4 L 2064.1 694.8 L 2064.5 707.4 L 2064.3 719.9 L 2063.4 732.4 L 2061.8 744.8 L 2059.7 757.2 L 2056.9 769.4 L 2053.6 781.5 L 2049.8 793.5 L 2045.5 805.2 L 2040.7 816.8 L 2035.5 828.2 L 2030.0 839.4 L 2024.1 850.3 L 2017.9 861.1 L 2011.4 871.7 L 2004.7 882.1 L 1997.8 892.3 L 1990.6 902.4 L 1983.2 912.2 L 1975.7 921.9 L 1967.9 931.4 L 1959.9 940.7 L 1951.7 949.9 L 1943.3 958.8 L 1934.7 967.5 L 1925.8 975.9 L 1916.7 984.1 L 1907.3 992.0 L 1897.7 999.6 L 1887.8 1006.8 L 1877.6 1013.6 L 1867.2 1020.0 L 1856.5 1025.9 L 1845.6 1031.4 L 1834.5 1036.4 L 1823.2 1040.9 L 1811.7 1044.8 L 1800.0 1048.2 L 1788.2 1051.1 L 1776.4 1053.5 L 1764.5 1055.3 L 1752.5 1056.7 L 1740.6 1057.6 L 1728.7 1058.1 L 1716.8 1058.2 L 1705.0 1057.9 L 1693.4 1057.4 L 1681.8 1056.7 L 1670.3 1055.7 L 1658.9 1054.6 L 1647.6 1053.4 L 1636.4 1052.2 L 1625.2 1051.0 L 1614.1 1049.7 L 1603.1 1048.6 L 1592.0 1047.5 L 1580.9 1046.4 L 1569.7 1045.5 L 1558.5 1044.6 L 1547.1 1043.8 L 1535.6 1042.9 L 1524.0 1042.1 L 1512.3 1041.2 L 1500.4 1040.2 L 1488.3 1039.1 L 1476.2 1037.7 L 1463.9 1036.0 L 1451.5 1034.1 L 1439.1 1031.7 L 1426.7 1028.9 L 1414.4 1025.6 L 1402.1 1021.7 L 1390.0 1017.3 L 1378.1 1012.2 L 1366.4 1006.6 L 1355.1 1000.2 L 1344.2 993.2 L 1333.7 985.6 L 1323.8 977.4 L 1314.3 968.5 L 1305.5 959.1 L 1297.2 949.1 L 1289.6 938.7 L 1282.7 927.7 L 1276.3 916.5 L 1270.7 904.8 L 1265.6 892.9 L 1261.2 880.8 L 1257.4 868.5 L 1254.1 856.1 L 1251.4 843.6 L 1249.1 831.0 L 1247.2 818.5 L 1245.7 806.0 L 1244.6 793.6 L 1243.7 781.3 L 1243.1 769.0 L 1242.6 756.8 L 1242.4 744.8 L 1242.3 732.8 L 1242.3 720.9 L 1242.4 709.1 L 1242.7 697.4 L 1243.0 685.7 L 1243.4 674.1 L 1244.0 662.5 L 1244.7 650.9 L 1245.5 639.4 L 1246.5 627.8 L 1247.7 616.3 L 1249.2 604.8 L 1251.0 593.4 L 1253.0 581.9 L 1255.4 570.5 L 1258.1 559.2 L 1261.1 548.0 L 1264.6 536.9 L 1268.4 525.8 L 1272.7 515.0 L 1277.3 504.3 L 1282.3 493.7 L 1287.7 483.4 L 1293.5 473.3 L 1299.6 463.3 L 1306.0 453.6 L 1312.7 444.1 L 1319.7 434.8 L 1326.9 425.7 L 1334.4 416.7 L 1342.0 408.0 L 1349.8 399.3 L 1357.7 390.8 L 1365.8 382.5 L 1373.9 374.2 L 1382.2 366.0 L 1390.7 357.8 L 1399.2 349.7 L 1407.8 341.6 L 1416.6 333.6 L 1425.6 325.6 L 1434.7 317.6 L 1444.0 309.7 L 1453.5 302.0 L 1463.2 294.3 L 1473.2 286.8 L 1483.5 279.6 L 1494.0 272.5 L 1504.8 265.8 L 1515.9 259.5 L 1527.3 253.6 L 1539.0 248.2 L 1551.0 243.4 L 1563.2 239.1 L 1575.6 235.5 L 1588.2 232.6 L 1600.9 230.5 L 1613.8 229.1 L 1626.7 228.5 L 1639.6 228.8 L 1652.5 229.8 L 1665.3 231.6 L 1678.0 234.3 L 1690.5 237.6 L 1702.7 241.7 L 1714.8 246.5 L 1726.5 251.9 L 1737.9 257.9 L 1749.0 264.3 L 1759.8 271.2 L 1770.2 278.4 L 1780.3 286.0 L 1790.1 293.7 L 1799.6 301.6 L 1808.8 309.7 L 1817.8 317.7 L 1826.6 325.8 L 1835.1 333.8 L 1843.6 341.7 L 1852.0 349.6 L 1860.3 357.3 L 1868.6 364.9 L 1876.8 372.4 L 1885.1 379.8 L 1893.5 387.2 L 1901.9 394.5 L 1910.4 401.7 L 1918.9 409.0 L 1927.4 416.4 L 1936.0 423.8 L 1944.6 431.4 L 1953.2 439.2 L 1961.7 447.1 L 1970.0 455.3 L 1978.3 463.8 L 1986.3 472.6 L 1994.1 481.6 L 2001.6 491.0 L 2008.8 500.7 L 2015.6 510.7 L 2021.9 521.1 L 2027.8 531.7 L 2033.3 542.6 L 2038.2 553.7 L 2042.6 565.1 L 2046.5 576.7 L 2049.9 588.5 L 2052.8 600.4 L 2055.1 612.5 L 2056.9 624.6 L 2058.3 636.8 L 2059.2 649.1 L 2059.7 661.3 L 2059.8 673.6 L 2059.4 685.9 L 2058.8 698.2 L 2057.8 710.4 L 2056.5 722.6" fill="none" stroke="#9fb782" stroke-opacity="0.250" stroke-width="7.4"/><path d="M 2223.8 670.0 L 2225.9 685.1 L 2227.2 700.3 L 2227.7 715.6 L 2227.4 730.8 L 2226.3 746.1 L 2224.4 761.3 L 2221.8 776.3 L 2218.4 791.3 L 2214.4 806.0 L 2209.7 820.6 L 2204.5 834.9 L 2198.7 849.0 L 2192.4 862.9 L 2185.6 876.5 L 2178.4 889.9 L 2170.9 903.1 L 2163.0 916.0 L 2154.8 928.7 L 2146.3 941.1 L 2137.6 953.4 L 2128.6 965.4 L 2119.3 977.2 L 2109.9 988.8 L 2100.1 1000.2 L 2090.2 1011.3 L 2079.9 1022.2 L 2069.4 1032.8 L 2058.6 1043.1 L 2047.4 1053.1 L 2036.0 1062.7 L 2024.3 1071.9 L 2012.2 1080.7 L 1999.8 1089.0 L 1987.1 1096.8 L 1974.1 1104.1 L 1960.8 1110.8 L 1947.2 1116.8 L 1933.4 1122.3 L 1919.4 1127.1 L 1905.1 1131.3 L 1890.8 1134.8 L 1876.3 1137.6 L 1861.8 1139.9 L 1847.2 1141.6 L 1832.7 1142.7 L 1818.1 1143.3 L 1803.7 1143.4 L 1789.3 1143.1 L 1775.1 1142.5 L 1760.9 1141.5 L 1746.9 1140.4 L 1733.0 1139.1 L 1719.3 1137.6 L 1705.6 1136.1 L 1692.0 1134.6 L 1678.5 1133.1 L 1665.0 1131.7 L 1651.4 1130.3 L 1637.9 1129.1 L 1624.3 1127.9 L 1610.6 1126.8 L 1596.7 1125.8 L 1582.7 1124.8 L 1568.6 1123.8 L 1554.2 1122.7 L 1539.7 1121.5 L 1525.0 1120.1 L 1510.2 1118.4 L 1495.2 1116.4 L 1480.2 1114.0 L 1465.0 1111.1 L 1449.9 1107.7 L 1434.8 1103.6 L 1419.9 1098.9 L 1405.1 1093.5 L 1390.6 1087.4 L 1376.4 1080.4 L 1362.6 1072.7 L 1349.3 1064.2 L 1336.5 1054.9 L 1324.4 1044.8 L 1312.8 1034.0 L 1302.1 1022.5 L 1292.0 1010.4 L 1282.7 997.6 L 1274.2 984.3 L 1266.5 970.6 L 1259.6 956.4 L 1253.5 941.8 L 1248.1 927.1 L 1243.4 912.1 L 1239.4 896.9 L 1236.1 881.7 L 1233.3 866.4 L 1231.0 851.1 L 1229.2 835.9 L 1227.8 820.7 L 1226.7 805.7 L 1225.9 790.7 L 1225.4 775.9 L 1225.1 761.2 L 1225.0 746.6 L 1225.0 732.1 L 1225.2 717.7 L 1225.4 703.4 L 1225.8 689.2 L 1226.4 675.0 L 1227.0 660.9 L 1227.9 646.7 L 1228.9 632.7 L 1230.1 618.6 L 1231.6 604.5 L 1233.4 590.5 L 1235.6 576.5 L 1238.0 562.6 L 1240.9 548.7 L 1244.2 534.9 L 1248.0 521.2 L 1252.2 507.6 L 1256.9 494.2 L 1262.1 480.9 L 1267.7 467.9 L 1273.8 455.0 L 1280.4 442.4 L 1287.4 430.1 L 1294.9 417.9 L 1302.7 406.1 L 1310.9 394.5 L 1319.4 383.1 L 1328.2 372.0 L 1337.3 361.1 L 1346.6 350.4 L 1356.1 339.9 L 1365.7 329.6 L 1375.6 319.4 L 1385.5 309.2 L 1395.7 299.2 L 1405.9 289.3 L 1416.3 279.4 L 1426.9 269.5 L 1437.6 259.7 L 1448.5 250.0 L 1459.6 240.3 L 1470.9 230.7 L 1482.5 221.2 L 1494.4 211.8 L 1506.6 202.7 L 1519.1 193.8 L 1532.0 185.3 L 1545.2 177.1 L 1558.7 169.4 L 1572.6 162.2 L 1586.9 155.6 L 1601.4 149.7 L 1616.3 144.5 L 1631.4 140.2 L 1646.8 136.6 L 1662.4 134.0 L 1678.0 132.3 L 1693.8 131.6 L 1709.5 131.9 L 1725.3 133.2 L 1740.9 135.4 L 1756.3 138.6 L 1771.5 142.7 L 1786.5 147.7 L 1801.2 153.5 L 1815.5 160.1 L 1829.4 167.4 L 1842.9 175.3 L 1856.1 183.7 L 1868.8 192.5 L 1881.1 201.7 L 1893.1 211.1 L 1904.6 220.8 L 1915.9 230.6 L 1926.8 240.4 L 1937.5 250.2 L 1948.0 260.0 L 1958.3 269.6 L 1968.5 279.2 L 1978.6 288.6 L 1988.7 297.9 L 1998.8 307.1 L 2009.0 316.1 L 2019.1 325.1 L 2029.4 334.0 L 2039.7 342.8 L 2050.1 351.7 L 2060.5 360.7 L 2071.0 369.8 L 2081.5 379.0 L 2091.9 388.5 L 2102.3 398.2 L 2112.5 408.2 L 2122.5 418.5 L 2132.3 429.2 L 2141.8 440.3 L 2151.0 451.7 L 2159.7 463.6 L 2168.0 475.8 L 2175.8 488.4 L 2183.0 501.3 L 2189.6 514.6 L 2195.6 528.2 L 2201.0 542.1 L 2205.8 556.3 L 2209.9 570.6 L 2213.4 585.2 L 2216.2 599.8 L 2218.5 614.6 L 2220.1 629.5 L 2221.2 644.5 L 2221.8 659.4 L 2221.9 674.4 L 2221.5 689.4 L 2220.7 704.3 L 2219.5 719.3 L 2217.9 734.2" fill="none" stroke="#9fb782" stroke-opacity="0.285" stroke-width="8.6"/><path d="M 2386.2 670.0 L 2388.7 687.8 L 2390.3 705.8 L 2390.9 723.8 L 2390.5 741.8 L 2389.2 759.8 L 2387.0 777.7 L 2383.9 795.5 L 2380.0 813.1 L 2375.2 830.5 L 2369.7 847.7 L 2363.5 864.6 L 2356.6 881.2 L 2349.2 897.6 L 2341.2 913.7 L 2332.7 929.5 L 2323.8 945.0 L 2314.5 960.3 L 2304.8 975.2 L 2294.8 989.9 L 2284.5 1004.4 L 2273.9 1018.6 L 2263.0 1032.5 L 2251.8 1046.2 L 2240.4 1059.6 L 2228.6 1072.7 L 2216.5 1085.6 L 2204.1 1098.1 L 2191.3 1110.3 L 2178.2 1122.0 L 2164.7 1133.4 L 2150.8 1144.3 L 2136.6 1154.6 L 2122.0 1164.5 L 2107.0 1173.7 L 2091.6 1182.2 L 2075.9 1190.1 L 2059.9 1197.3 L 2043.6 1203.7 L 2027.0 1209.4 L 2010.3 1214.3 L 1993.3 1218.4 L 1976.3 1221.8 L 1959.1 1224.5 L 1941.9 1226.4 L 1924.7 1227.8 L 1907.6 1228.5 L 1890.6 1228.6 L 1873.6 1228.3 L 1856.8 1227.5 L 1840.1 1226.4 L 1823.6 1225.1 L 1807.2 1223.5 L 1790.9 1221.8 L 1774.8 1220.0 L 1758.8 1218.2 L 1742.8 1216.5 L 1726.8 1214.8 L 1710.9 1213.2 L 1694.9 1211.7 L 1678.9 1210.3 L 1662.7 1209.1 L 1646.3 1207.9 L 1629.8 1206.7 L 1613.1 1205.5 L 1596.2 1204.2 L 1579.1 1202.7 L 1561.8 1201.1 L 1544.2 1199.1 L 1526.6 1196.7 L 1508.8 1193.9 L 1490.9 1190.5 L 1473.1 1186.4 L 1455.3 1181.7 L 1437.6 1176.1 L 1420.2 1169.7 L 1403.1 1162.5 L 1386.3 1154.3 L 1370.1 1145.2 L 1354.3 1135.2 L 1339.3 1124.2 L 1324.9 1112.3 L 1311.4 1099.6 L 1298.6 1086.0 L 1286.8 1071.7 L 1275.8 1056.6 L 1265.8 1040.9 L 1256.7 1024.7 L 1248.5 1007.9 L 1241.3 990.8 L 1234.9 973.3 L 1229.4 955.6 L 1224.7 937.7 L 1220.7 919.8 L 1217.4 901.7 L 1214.8 883.7 L 1212.6 865.8 L 1211.0 847.9 L 1209.7 830.1 L 1208.8 812.5 L 1208.2 795.0 L 1207.8 777.6 L 1207.7 760.4 L 1207.7 743.3 L 1207.9 726.3 L 1208.2 709.4 L 1208.7 692.6 L 1209.3 675.9 L 1210.1 659.2 L 1211.1 642.6 L 1212.3 625.9 L 1213.8 609.3 L 1215.5 592.8 L 1217.7 576.2 L 1220.2 559.7 L 1223.1 543.3 L 1226.5 526.9 L 1230.4 510.6 L 1234.8 494.4 L 1239.8 478.4 L 1245.3 462.6 L 1251.4 446.9 L 1258.1 431.5 L 1265.3 416.4 L 1273.1 401.5 L 1281.4 386.9 L 1290.2 372.6 L 1299.4 358.6 L 1309.1 344.9 L 1319.1 331.5 L 1329.5 318.4 L 1340.2 305.5 L 1351.2 292.9 L 1362.4 280.5 L 1373.8 268.3 L 1385.4 256.2 L 1397.1 244.3 L 1409.1 232.5 L 1421.2 220.7 L 1433.5 209.1 L 1445.9 197.4 L 1458.5 185.9 L 1471.4 174.4 L 1484.5 162.9 L 1497.9 151.6 L 1511.6 140.4 L 1525.6 129.4 L 1540.0 118.6 L 1554.7 108.1 L 1569.9 98.0 L 1585.5 88.4 L 1601.5 79.3 L 1617.9 70.8 L 1634.7 63.0 L 1651.9 56.1 L 1669.4 50.0 L 1687.3 44.8 L 1705.4 40.6 L 1723.8 37.5 L 1742.3 35.5 L 1760.9 34.7 L 1779.5 35.0 L 1798.0 36.5 L 1816.4 39.2 L 1834.6 42.9 L 1852.6 47.8 L 1870.3 53.7 L 1887.6 60.6 L 1904.5 68.3 L 1920.9 76.9 L 1936.9 86.2 L 1952.4 96.1 L 1967.4 106.5 L 1981.9 117.4 L 1996.0 128.5 L 2009.7 139.9 L 2022.9 151.5 L 2035.8 163.1 L 2048.5 174.6 L 2060.8 186.2 L 2073.0 197.6 L 2085.0 208.9 L 2097.0 220.0 L 2108.9 231.0 L 2120.8 241.8 L 2132.8 252.4 L 2144.8 263.0 L 2156.9 273.5 L 2169.0 284.0 L 2181.3 294.5 L 2193.6 305.0 L 2206.0 315.7 L 2218.3 326.7 L 2230.7 337.8 L 2242.9 349.3 L 2254.9 361.1 L 2266.8 373.3 L 2278.4 385.9 L 2289.6 398.9 L 2300.4 412.4 L 2310.7 426.4 L 2320.4 440.8 L 2329.6 455.7 L 2338.1 471.0 L 2345.9 486.7 L 2353.1 502.7 L 2359.4 519.1 L 2365.0 535.8 L 2369.9 552.7 L 2374.0 569.9 L 2377.3 587.2 L 2380.0 604.7 L 2381.9 622.2 L 2383.2 639.9 L 2383.9 657.5 L 2384.0 675.2 L 2383.6 692.9 L 2382.7 710.5 L 2381.2 728.1 L 2379.4 745.7" fill="none" stroke="#9fb782" stroke-opacity="0.320" stroke-width="9.8"/></g>
      
        <g opacity=".72">
          <path d="M1180 260 L1325 620 L1180 548 L1035 620 Z" fill="none" stroke="#1a2e1f" stroke-opacity=".58" stroke-width="9" stroke-linejoin="round"/>
          <path d="M1180 548 L1180 900" stroke="#9fb782" stroke-opacity=".58" stroke-width="8"/>
          <circle cx="1180" cy="1010" r="90" fill="none" stroke="#1a2e1f" stroke-opacity=".42" stroke-width="7"/>
          <path d="M900 830 C1040 740 1320 740 1460 830" fill="none" stroke="#9fb782" stroke-opacity=".5" stroke-width="7"/>
          <path d="M780 370 C920 250 1010 245 1110 360 M1250 360 C1350 245 1440 250 1580 370" fill="none" stroke="#1a2e1f" stroke-opacity=".36" stroke-width="7" stroke-linecap="round"/>
        </g>
      <g opacity=".18">
        <circle cx="2100" cy="210" r="220" fill="none" stroke="#9fb782" stroke-width="6"/>
        <circle cx="320" cy="1110" r="260" fill="none" stroke="#1a2e1f" stroke-width="5"/>
      </g>
    </svg>